<?xml version="1.0" encoding="utf-8"?>

<!DOCTYPE svg PUBLIC "-//W3C//DTD SVG 1.1//EN" "http://www.w3.org/Graphics/SVG/1.1/DTD/svg11.dtd">
<svg version="1.1" id="Layer_1" xmlns="http://www.w3.org/2000/svg" xmlns:xlink="http://www.w3.org/1999/xlink" x="0px" y="0px"
	 viewBox="0 0 2560 1600" enable-background="new 0 0 2560 1600" xml:space="preserve">
<pattern  width="448.4" height="777" patternUnits="userSpaceOnUse" id="New_Pattern" viewBox="112.607 -842.302 448.4 777" overflow="visible">
	<g>
		<polygon fill="none" points="112.607,-842.302 561.007,-842.302 561.007,-65.302 112.607,-65.302 		"/>
		<g>
			<g>
				<g>
					<polygon fill="none" stroke="#000000" stroke-miterlimit="10" points="531.007,-306.882 561.007,-324.202 591.007,-306.882 
						591.007,-212.073 561.007,-194.752 531.007,-212.073 					"/>
					<polygon fill="none" stroke="#000000" stroke-miterlimit="10" points="561.007,-160.111 561.007,-194.752 591.007,-212.073 
						673.114,-164.668 673.114,-130.027 643.114,-112.707 					"/>
					<polygon fill="none" stroke="#000000" stroke-miterlimit="10" points="561.007,-160.111 561.007,-194.752 531.007,-212.073 
						448.9,-164.668 448.9,-130.027 478.9,-112.707 					"/>
				</g>
				<polygon fill="none" stroke="#000000" stroke-miterlimit="10" points="418.9,-112.707 448.9,-130.027 478.9,-112.707 
					478.9,-17.898 448.9,-0.577 418.9,-17.898 				"/>
			</g>
			<polygon fill="none" stroke="#000000" stroke-miterlimit="10" points="336.793,-160.111 336.793,-194.752 366.793,-212.073 
				448.9,-164.668 448.9,-130.027 418.9,-112.707 			"/>
		</g>
		<g>
			<g>
				<g>
					<polygon fill="none" stroke="#000000" stroke-miterlimit="10" points="82.607,-306.882 112.607,-324.202 142.607,-306.882 
						142.607,-212.073 112.607,-194.752 82.607,-212.073 					"/>
					<polygon fill="none" stroke="#000000" stroke-miterlimit="10" points="112.607,-160.111 112.607,-194.752 142.607,-212.073 
						224.714,-164.668 224.714,-130.027 194.714,-112.707 					"/>
					<polygon fill="none" stroke="#000000" stroke-miterlimit="10" points="112.607,-160.111 112.607,-194.752 82.607,-212.073 
						0.5,-164.668 0.5,-130.027 30.5,-112.707 					"/>
				</g>
				<polygon fill="none" stroke="#000000" stroke-miterlimit="10" points="194.714,-112.707 224.714,-130.027 254.714,-112.707 
					254.714,-17.898 224.714,-0.577 194.714,-17.898 				"/>
			</g>
			<polygon fill="none" stroke="#000000" stroke-miterlimit="10" points="336.821,-160.111 336.821,-194.752 306.821,-212.073 
				224.714,-164.668 224.714,-130.027 254.714,-112.707 			"/>
		</g>
		<g>
			<polygon fill="none" stroke="#000000" stroke-miterlimit="10" points="560.993,-548.611 560.993,-583.252 590.993,-600.573 
				673.1,-553.168 673.1,-518.527 643.1,-501.207 			"/>
			<polygon fill="none" stroke="#000000" stroke-miterlimit="10" points="560.993,-359.232 560.993,-324.591 590.993,-307.271 
				673.1,-354.675 673.1,-389.316 643.1,-406.637 			"/>
		</g>
		<g>
			<g>
				<g>
					<polygon fill="none" stroke="#000000" stroke-miterlimit="10" points="306.807,-695.382 336.807,-712.702 366.807,-695.382 
						366.807,-600.573 336.807,-583.252 306.807,-600.573 					"/>
					<polygon fill="none" stroke="#000000" stroke-miterlimit="10" points="336.807,-548.611 336.807,-583.252 366.807,-600.573 
						448.914,-553.168 448.914,-518.527 418.914,-501.207 					"/>
					<polygon fill="none" stroke="#000000" stroke-miterlimit="10" points="336.807,-548.611 336.807,-583.252 306.807,-600.573 
						224.7,-553.168 224.7,-518.527 254.7,-501.207 					"/>
				</g>
				<g>
					<polygon fill="none" stroke="#000000" stroke-miterlimit="10" points="306.807,-212.223 336.807,-194.902 366.807,-212.223 
						366.807,-307.032 336.807,-324.352 306.807,-307.032 					"/>
					<polygon fill="none" stroke="#000000" stroke-miterlimit="10" points="336.807,-358.993 336.807,-324.352 366.807,-307.032 
						448.914,-354.436 448.914,-389.077 418.914,-406.398 					"/>
					<polygon fill="none" stroke="#000000" stroke-miterlimit="10" points="336.807,-358.993 336.807,-324.352 306.807,-307.032 
						224.7,-354.436 224.7,-389.077 254.7,-406.398 					"/>
				</g>
				<polygon fill="none" stroke="#000000" stroke-miterlimit="10" points="418.914,-501.207 448.914,-518.527 478.914,-501.207 
					478.914,-406.398 448.914,-389.077 418.914,-406.398 				"/>
				<polygon fill="none" stroke="#000000" stroke-miterlimit="10" points="194.7,-501.207 224.7,-518.527 254.7,-501.207 
					254.7,-406.398 224.7,-389.077 194.7,-406.398 				"/>
			</g>
			<polygon fill="none" stroke="#000000" stroke-miterlimit="10" points="112.593,-548.611 112.593,-583.252 142.593,-600.573 
				224.7,-553.168 224.7,-518.527 194.7,-501.207 			"/>
			<polygon fill="none" stroke="#000000" stroke-miterlimit="10" points="561.021,-548.611 561.021,-583.252 531.021,-600.573 
				448.914,-553.168 448.914,-518.527 478.914,-501.207 			"/>
			<polygon fill="none" stroke="#000000" stroke-miterlimit="10" points="112.593,-359.232 112.593,-324.591 142.593,-307.271 
				224.7,-354.675 224.7,-389.316 194.7,-406.637 			"/>
			<polygon fill="none" stroke="#000000" stroke-miterlimit="10" points="561.021,-358.993 561.021,-324.352 531.021,-307.032 
				448.914,-354.436 448.914,-389.077 478.914,-406.398 			"/>
		</g>
		<g>
			<polygon fill="none" stroke="#000000" stroke-miterlimit="10" points="112.621,-548.611 112.621,-583.252 82.621,-600.573 
				0.514,-553.168 0.514,-518.527 30.514,-501.207 			"/>
			<polygon fill="none" stroke="#000000" stroke-miterlimit="10" points="112.621,-358.993 112.621,-324.352 82.621,-307.032 
				0.514,-354.436 0.514,-389.077 30.514,-406.398 			"/>
		</g>
		<g>
			<g>
				<g>
					<polygon fill="none" stroke="#000000" stroke-miterlimit="10" points="531.007,-600.723 561.007,-583.402 591.007,-600.723 
						591.007,-695.532 561.007,-712.852 531.007,-695.532 					"/>
					<polygon fill="none" stroke="#000000" stroke-miterlimit="10" points="561.007,-747.493 561.007,-712.852 591.007,-695.532 
						673.114,-742.936 673.114,-777.577 643.114,-794.898 					"/>
					<polygon fill="none" stroke="#000000" stroke-miterlimit="10" points="561.007,-747.493 561.007,-712.852 531.007,-695.532 
						448.9,-742.936 448.9,-777.577 478.9,-794.898 					"/>
				</g>
				<polygon fill="none" stroke="#000000" stroke-miterlimit="10" points="418.9,-889.707 448.9,-907.027 478.9,-889.707 
					478.9,-794.898 448.9,-777.577 418.9,-794.898 				"/>
			</g>
			<polygon fill="none" stroke="#000000" stroke-miterlimit="10" points="336.793,-747.732 336.793,-713.091 366.793,-695.771 
				448.9,-743.175 448.9,-777.816 418.9,-795.137 			"/>
		</g>
		<g>
			<g>
				<g>
					<polygon fill="none" stroke="#000000" stroke-miterlimit="10" points="82.607,-600.723 112.607,-583.402 142.607,-600.723 
						142.607,-695.532 112.607,-712.852 82.607,-695.532 					"/>
					<polygon fill="none" stroke="#000000" stroke-miterlimit="10" points="112.607,-747.493 112.607,-712.852 142.607,-695.532 
						224.714,-742.936 224.714,-777.577 194.714,-794.898 					"/>
					<polygon fill="none" stroke="#000000" stroke-miterlimit="10" points="112.607,-747.493 112.607,-712.852 82.607,-695.532 
						0.5,-742.936 0.5,-777.577 30.5,-794.898 					"/>
				</g>
				<polygon fill="none" stroke="#000000" stroke-miterlimit="10" points="194.714,-889.707 224.714,-907.027 254.714,-889.707 
					254.714,-794.898 224.714,-777.577 194.714,-794.898 				"/>
			</g>
			<polygon fill="none" stroke="#000000" stroke-miterlimit="10" points="336.821,-747.493 336.821,-712.852 306.821,-695.532 
				224.714,-742.936 224.714,-777.577 254.714,-794.898 			"/>
		</g>
	</g>
</pattern>
<rect fill="url(#New_Pattern)" width="2560" height="1600"/>
</svg>
